<svg width="256" height="256" viewBox="0 0 32 32" fill="none" xmlns="http://www.w3.org/2000/svg">
  <defs>
    <linearGradient id="pixelGradient" x1="0%" y1="0%" x2="100%" y2="100%">
      <stop offset="0%" style="stop-color:#06b6d4" />
      <stop offset="100%" style="stop-color:#14b8a6" />
    </linearGradient>
  </defs>
  <!-- Pixel droplet shape -->
  <rect x="15" y="2" width="2" height="2" fill="url(#pixelGradient)" />
  <rect x="14" y="4" width="4" height="2" fill="url(#pixelGradient)" />
  <rect x="13" y="6" width="6" height="2" fill="url(#pixelGradient)" />
  <rect x="12" y="8" width="8" height="2" fill="url(#pixelGradient)" />
  <rect x="10" y="10" width="12" height="2" fill="url(#pixelGradient)" />
  <rect x="8" y="12" width="16" height="2" fill="url(#pixelGradient)" />
  <rect x="6" y="14" width="20" height="2" fill="url(#pixelGradient)" />
  <rect x="6" y="16" width="20" height="2" fill="url(#pixelGradient)" />
  <rect x="6" y="18" width="20" height="2" fill="url(#pixelGradient)" />
  <rect x="6" y="20" width="20" height="2" fill="url(#pixelGradient)" />
  <rect x="8" y="22" width="16" height="2" fill="url(#pixelGradient)" />
  <rect x="10" y="24" width="12" height="2" fill="url(#pixelGradient)" />
  <rect x="12" y="26" width="8" height="2" fill="url(#pixelGradient)" />
  <!-- Highlight -->
  <rect x="10" y="16" width="2" height="2" fill="white" opacity="0.5" />
  <rect x="10" y="18" width="2" height="2" fill="white" opacity="0.3" />
</svg>

